<svg width="129" height="22" viewBox="0 0 129 22" fill="none" xmlns="http://www.w3.org/2000/svg">
<path d="M3.65625 18.041C2.98307 18.041 2.41016 17.8978 1.9375 17.6113C1.47917 17.3249 1.10677 16.9596 0.820312 16.5156C0.548177 16.0859 0.347656 15.599 0.21875 15.0547C0.104167 14.5104 0.046875 13.9805 0.046875 13.4648C0.046875 13.0208 0.104167 12.6055 0.21875 12.2188C0.347656 11.8177 0.46224 11.5456 0.5625 11.4023C0.634115 11.3021 0.727214 11.1947 0.841797 11.0801C0.95638 10.9655 1.12109 10.8867 1.33594 10.8438C1.5651 10.8008 1.79427 10.7507 2.02344 10.6934C2.22396 10.6504 2.41732 10.6146 2.60352 10.5859C2.80404 10.5573 2.98307 10.5286 3.14062 10.5C2.92578 10.7435 2.74674 11.0228 2.60352 11.3379C2.46029 11.653 2.35286 11.9824 2.28125 12.3262C2.20964 12.6556 2.15951 12.9779 2.13086 13.293C2.10221 13.6081 2.10221 13.8945 2.13086 14.1523C2.17383 14.8685 2.38151 15.4557 2.75391 15.9141C3.14062 16.3581 3.56315 16.5801 4.02148 16.5801C4.37956 16.5801 4.6875 16.4727 4.94531 16.2578C5.20312 16.0573 5.41797 15.7923 5.58984 15.4629C5.76172 15.1335 5.89779 14.7539 5.99805 14.3242C6.09831 13.8945 6.16992 13.4648 6.21289 13.0352C6.25586 12.5911 6.28451 12.1615 6.29883 11.7461C6.31315 11.3164 6.32031 10.944 6.32031 10.6289C6.32031 10.099 6.29167 9.51888 6.23438 8.88867C6.19141 8.25846 6.13411 7.62826 6.0625 6.99805C5.99089 6.36784 5.91211 5.77344 5.82617 5.21484C5.75456 4.64193 5.6901 4.16211 5.63281 3.77539C5.0599 3.86133 4.57292 3.96875 4.17188 4.09766C3.77083 4.22656 3.39844 4.33398 3.05469 4.41992C2.89714 4.44857 2.79688 4.41992 2.75391 4.33398C2.51042 3.93294 2.38151 3.57487 2.36719 3.25977C2.35286 2.94466 2.36719 2.70833 2.41016 2.55078C2.42448 2.47917 2.50326 2.41471 2.64648 2.35742C3.16211 2.18555 3.82812 2.02083 4.64453 1.86328C5.46094 1.70573 6.38477 1.60547 7.41602 1.5625C7.70247 1.5625 7.97461 1.56966 8.23242 1.58398C8.46159 1.59831 8.69792 1.62695 8.94141 1.66992C9.19922 1.71289 9.42839 1.77734 9.62891 1.86328C9.71484 1.9349 9.7793 2.02799 9.82227 2.14258C9.86523 2.24284 9.90104 2.35026 9.92969 2.46484C9.95833 2.60807 9.97266 2.7513 9.97266 2.89453C9.97266 3.05208 9.95833 3.20964 9.92969 3.36719C9.90104 3.51042 9.86523 3.66797 9.82227 3.83984C9.7793 4.01172 9.72201 4.18359 9.65039 4.35547C9.57878 4.26953 9.5 4.19076 9.41406 4.11914C9.34245 4.0332 9.23503 3.96159 9.0918 3.9043C8.94857 3.83268 8.76237 3.78255 8.5332 3.75391C8.30404 3.71094 7.99609 3.68229 7.60938 3.66797C7.73828 4.47005 7.8457 5.17188 7.93164 5.77344C8.0319 6.375 8.11068 6.96224 8.16797 7.53516C8.23958 8.10807 8.28971 8.70964 8.31836 9.33984C8.36133 9.97005 8.38281 10.7148 8.38281 11.5742C8.38281 12.7487 8.25391 13.7513 7.99609 14.582C7.73828 15.3984 7.38737 16.0645 6.94336 16.5801C6.51367 17.0957 6.01237 17.4681 5.43945 17.6973C4.86654 17.9264 4.27214 18.041 3.65625 18.041ZM10.5742 8.39453C10.5742 8.30859 10.6888 8.21549 10.918 8.11523C11.1471 8.01497 11.3978 7.9362 11.6699 7.87891C11.9564 7.80729 12.2142 7.77148 12.4434 7.77148C12.6868 7.75716 12.8086 7.80729 12.8086 7.92188C12.8086 8.13672 12.7943 8.44466 12.7656 8.8457C12.737 9.23242 12.7012 9.64779 12.6582 10.0918C12.6152 10.5215 12.5723 10.9583 12.5293 11.4023C12.4863 11.832 12.4577 12.1973 12.4434 12.498C12.4147 12.8132 12.3861 13.1569 12.3574 13.5293C12.3288 13.8444 12.3073 14.1953 12.293 14.582C12.2786 14.9688 12.2786 15.3626 12.293 15.7637C12.293 15.8353 12.2214 15.9069 12.0781 15.9785C11.9349 16.0501 11.7773 16.1003 11.6055 16.1289C11.4336 16.1719 11.2689 16.1934 11.1113 16.1934C10.9538 16.1934 10.8678 16.1647 10.8535 16.1074C10.8249 16.0501 10.7962 15.9499 10.7676 15.8066C10.7389 15.6634 10.7103 15.4629 10.6816 15.2051C10.653 14.9329 10.6315 14.5892 10.6172 14.1738C10.6029 13.7441 10.61 13.2285 10.6387 12.627C10.696 11.4382 10.7031 10.5215 10.6602 9.87695C10.6172 9.2181 10.5885 8.72396 10.5742 8.39453ZM12.0781 4.11914C12.3646 4.11914 12.6367 4.20508 12.8945 4.37695C13.1523 4.54883 13.2812 4.77799 13.2812 5.06445C13.2812 5.2793 13.224 5.48698 13.1094 5.6875C13.0091 5.88802 12.8802 6.06706 12.7227 6.22461C12.5651 6.38216 12.3861 6.51107 12.1855 6.61133C11.985 6.69727 11.7988 6.74023 11.627 6.74023C11.3978 6.74023 11.2116 6.70443 11.0684 6.63281C10.9251 6.54688 10.8105 6.45378 10.7246 6.35352C10.653 6.23893 10.6029 6.11719 10.5742 5.98828C10.5456 5.85938 10.5312 5.73763 10.5312 5.62305C10.5312 5.47982 10.5527 5.32227 10.5957 5.15039C10.6387 4.96419 10.7174 4.79948 10.832 4.65625C10.9466 4.4987 11.1042 4.36979 11.3047 4.26953C11.5052 4.16927 11.763 4.11914 12.0781 4.11914ZM11.541 6.11719C11.627 6.11719 11.7201 6.08854 11.8203 6.03125C11.9349 5.95964 12.0352 5.88086 12.1211 5.79492C12.2214 5.70898 12.3001 5.61589 12.3574 5.51562C12.429 5.41536 12.4648 5.32943 12.4648 5.25781C12.4648 5.14323 12.4076 5.08594 12.293 5.08594C12.2214 5.08594 12.1283 5.11458 12.0137 5.17188C11.9134 5.22917 11.8132 5.30078 11.7129 5.38672C11.6126 5.45833 11.5267 5.54427 11.4551 5.64453C11.3978 5.73047 11.3691 5.81641 11.3691 5.90234C11.3691 6.04557 11.4264 6.11719 11.541 6.11719ZM20.1133 9.4043C20.1133 9.60482 20.056 9.8125 19.9414 10.0273C19.8411 10.2279 19.7122 10.4212 19.5547 10.6074C19.3971 10.7936 19.2181 10.9583 19.0176 11.1016C18.8314 11.2305 18.6523 11.3092 18.4805 11.3379C18.5951 10.8939 18.6309 10.5501 18.5879 10.3066C18.5449 10.0632 18.4733 9.88411 18.373 9.76953C18.2585 9.64062 18.1152 9.56901 17.9434 9.55469C17.6855 9.55469 17.4349 9.70508 17.1914 10.0059C16.9622 10.2923 16.7617 10.6504 16.5898 11.0801C16.418 11.4954 16.2819 11.9466 16.1816 12.4336C16.0814 12.9062 16.0312 13.3359 16.0312 13.7227C16.0169 13.9948 16.0241 14.2598 16.0527 14.5176C16.0671 14.7324 16.0885 14.9544 16.1172 15.1836C16.1602 15.4128 16.2174 15.5918 16.2891 15.7207C16.2031 15.7923 16.0599 15.8783 15.8594 15.9785C15.6732 16.0788 15.4727 16.1432 15.2578 16.1719C15.0573 16.2005 14.8711 16.1647 14.6992 16.0645C14.5417 15.9642 14.4557 15.7493 14.4414 15.4199C14.4128 15.1048 14.3913 14.7539 14.377 14.3672C14.377 13.9661 14.377 13.5723 14.377 13.1855C14.3913 12.7845 14.4056 12.3906 14.4199 12.0039C14.4342 11.6172 14.4557 11.2591 14.4844 10.9297C14.513 10.2995 14.5273 9.8125 14.5273 9.46875C14.5273 9.125 14.5202 8.79557 14.5059 8.48047C14.5059 8.42318 14.599 8.3444 14.7852 8.24414C14.9857 8.12956 15.2005 8.0293 15.4297 7.94336C15.6732 7.85742 15.8952 7.80729 16.0957 7.79297C16.2962 7.77865 16.3965 7.82161 16.3965 7.92188C16.3965 8.07943 16.375 8.39453 16.332 8.86719C16.3034 9.32552 16.2604 9.80534 16.2031 10.3066C16.3034 10.0345 16.4323 9.74089 16.5898 9.42578C16.7617 9.11068 16.9551 8.81706 17.1699 8.54492C17.3848 8.27279 17.6283 8.05078 17.9004 7.87891C18.1725 7.69271 18.4733 7.59961 18.8027 7.59961C19.0605 7.59961 19.2682 7.67839 19.4258 7.83594C19.5977 7.99349 19.7337 8.17253 19.834 8.37305C19.9342 8.57357 20.0059 8.77409 20.0488 8.97461C20.0918 9.17513 20.1133 9.31836 20.1133 9.4043ZM23.6797 16.2363C22.6771 16.2363 21.9036 15.8997 21.3594 15.2266C20.8151 14.5534 20.543 13.6725 20.543 12.584C20.543 11.8249 20.6504 11.1159 20.8652 10.457C21.0944 9.78385 21.3952 9.20378 21.7676 8.7168C22.14 8.22982 22.5697 7.85026 23.0566 7.57812C23.5579 7.29167 24.0807 7.14844 24.625 7.14844C25.1549 7.14844 25.6061 7.3418 25.9785 7.72852C26.3509 8.10091 26.5371 8.63802 26.5371 9.33984C26.5371 9.79818 26.4368 10.2565 26.2363 10.7148C26.0358 11.1589 25.7708 11.5599 25.4414 11.918C25.1263 12.2617 24.7754 12.541 24.3887 12.7559C24.002 12.9707 23.6296 13.0781 23.2715 13.0781C23.0423 13.0781 22.849 13.0495 22.6914 12.9922C22.5339 12.9349 22.3906 12.849 22.2617 12.7344C22.3047 13.5508 22.4837 14.1237 22.7988 14.4531C23.1139 14.7682 23.5221 14.9258 24.0234 14.9258C24.3672 14.9258 24.668 14.8542 24.9258 14.7109C25.1979 14.5677 25.4271 14.403 25.6133 14.2168C25.7995 14.0306 25.9499 13.8444 26.0645 13.6582C26.179 13.4577 26.2578 13.3073 26.3008 13.207C26.3438 13.1211 26.4154 13.0781 26.5156 13.0781C26.6302 13.0781 26.6875 13.1641 26.6875 13.3359C26.6875 13.4935 26.6302 13.737 26.5156 14.0664C26.4154 14.3815 26.2435 14.7038 26 15.0332C25.7565 15.3483 25.4414 15.6276 25.0547 15.8711C24.6823 16.1146 24.224 16.2363 23.6797 16.2363ZM24.668 8.07227C24.582 8.07227 24.4173 8.16536 24.1738 8.35156C23.9447 8.52344 23.694 8.78125 23.4219 9.125C23.1641 9.46875 22.9206 9.88411 22.6914 10.3711C22.4766 10.8438 22.3405 11.3809 22.2832 11.9824C23.1426 11.7819 23.8229 11.4668 24.3242 11.0371C24.8255 10.6074 25.0762 9.97721 25.0762 9.14648C25.0762 8.73112 25.026 8.45182 24.9258 8.30859C24.8255 8.15104 24.7396 8.07227 24.668 8.07227ZM32.8105 8.00781C32.8105 7.85026 32.9036 7.73568 33.0898 7.66406C33.2904 7.57812 33.498 7.53516 33.7129 7.53516C33.9421 7.53516 34.1497 7.57812 34.3359 7.66406C34.5221 7.73568 34.6081 7.83594 34.5938 7.96484C34.5794 8.0651 34.5651 8.26562 34.5508 8.56641C34.5365 8.85286 34.515 9.19661 34.4863 9.59766C34.472 9.9987 34.4505 10.4284 34.4219 10.8867C34.3932 11.3451 34.3646 11.7962 34.3359 12.2402C34.3216 12.6699 34.3073 13.071 34.293 13.4434C34.293 13.8158 34.293 14.1022 34.293 14.3027C34.293 14.5605 34.3073 14.7969 34.3359 15.0117C34.3646 15.1979 34.4004 15.3841 34.4434 15.5703C34.4863 15.7422 34.5508 15.8639 34.6367 15.9355C34.5221 15.9785 34.4004 16.0072 34.2715 16.0215C34.1569 16.0358 34.0495 16.0501 33.9492 16.0645C33.8346 16.0788 33.7201 16.0859 33.6055 16.0859C33.362 16.0859 33.1543 16.0358 32.9824 15.9355C32.8249 15.8353 32.7461 15.6276 32.7461 15.3125C32.7461 15.1549 32.7533 14.9258 32.7676 14.625C32.7962 14.3242 32.8249 14.002 32.8535 13.6582C32.7533 13.959 32.6315 14.2669 32.4883 14.582C32.3451 14.8971 32.166 15.1764 31.9512 15.4199C31.7507 15.6634 31.5215 15.8639 31.2637 16.0215C31.0059 16.179 30.7122 16.2578 30.3828 16.2578C30.0104 16.2578 29.6667 16.179 29.3516 16.0215C29.0508 15.8639 28.7858 15.6419 28.5566 15.3555C28.3275 15.0547 28.1556 14.6895 28.041 14.2598C27.9264 13.8301 27.8835 13.3359 27.9121 12.7773C27.9121 12.3477 27.9193 11.8893 27.9336 11.4023C27.9479 10.987 27.9694 10.5072 27.998 9.96289C28.0267 9.41862 28.0768 8.85286 28.1484 8.26562C28.1628 8.20833 28.263 8.13672 28.4492 8.05078C28.6354 7.96484 28.8431 7.89323 29.0723 7.83594C29.3014 7.77865 29.5234 7.75716 29.7383 7.77148C29.9531 7.78581 30.1107 7.87174 30.2109 8.0293C30.1393 8.28711 30.0677 8.59505 29.9961 8.95312C29.9245 9.29688 29.86 9.65495 29.8027 10.0273C29.7454 10.3997 29.7025 10.765 29.6738 11.123C29.6452 11.4811 29.6309 11.8105 29.6309 12.1113C29.6309 12.3835 29.6452 12.6842 29.6738 13.0137C29.7025 13.3288 29.7526 13.6296 29.8242 13.916C29.9102 14.1882 30.0247 14.4173 30.168 14.6035C30.3255 14.7897 30.526 14.8828 30.7695 14.8828C31.0417 14.8828 31.278 14.7682 31.4785 14.5391C31.6934 14.2956 31.8724 13.9876 32.0156 13.6152C32.1589 13.2428 32.2806 12.8203 32.3809 12.3477C32.4811 11.8607 32.5599 11.3809 32.6172 10.9082C32.6888 10.4355 32.7318 9.98438 32.7461 9.55469C32.7747 9.11068 32.7962 8.73828 32.8105 8.4375V8.00781ZM38.4609 16.1934C38.1602 16.1934 37.8522 16.1146 37.5371 15.957C37.222 15.7995 36.9284 15.5632 36.6562 15.248C36.3841 14.9186 36.1621 14.5176 35.9902 14.0449C35.8184 13.5579 35.7324 12.9922 35.7324 12.3477C35.7324 11.4023 35.8542 10.6217 36.0977 10.0059C36.3411 9.37565 36.6348 8.87435 36.9785 8.50195C37.3366 8.11523 37.7233 7.8431 38.1387 7.68555C38.554 7.52799 38.9336 7.44922 39.2773 7.44922C39.6354 7.44922 39.929 7.51367 40.1582 7.64258C40.4017 7.75716 40.6022 7.89323 40.7598 8.05078V7.64258C40.8457 7.57096 40.9388 7.50651 41.0391 7.44922C41.1536 7.39193 41.2682 7.34896 41.3828 7.32031C41.4974 7.27734 41.6191 7.25586 41.748 7.25586H42.0703C42.1562 7.27018 42.2422 7.28451 42.3281 7.29883C42.4284 7.31315 42.5 7.34896 42.543 7.40625C42.457 9.28255 42.3854 10.8008 42.3281 11.9609C42.2708 13.1211 42.2279 14.0234 42.1992 14.668C42.1562 15.4271 42.1276 15.9785 42.1133 16.3223C42.0846 16.9238 42.0059 17.5182 41.877 18.1055C41.748 18.707 41.5475 19.2441 41.2754 19.7168C41.0033 20.1895 40.6452 20.569 40.2012 20.8555C39.7572 21.1419 39.2129 21.2852 38.5684 21.2852C38.0098 21.2852 37.5586 21.1777 37.2148 20.9629C36.8854 20.748 36.6276 20.4831 36.4414 20.168C36.2695 19.8529 36.1549 19.5163 36.0977 19.1582C36.0404 18.8145 36.0117 18.4993 36.0117 18.2129C36.0117 18.1413 36.0475 18.0339 36.1191 17.8906C36.2051 17.7474 36.3197 17.597 36.4629 17.4395C36.6204 17.2962 36.8138 17.1673 37.043 17.0527C37.2721 16.9382 37.5299 16.8665 37.8164 16.8379C37.6875 17.2246 37.6087 17.5755 37.5801 17.8906C37.5514 18.0625 37.5443 18.2344 37.5586 18.4062C37.5586 18.8789 37.6517 19.2728 37.8379 19.5879C38.0241 19.903 38.3105 20.0605 38.6973 20.0605C39.1126 20.0605 39.4492 19.8815 39.707 19.5234C39.9648 19.1797 40.1582 18.7572 40.2871 18.2559C40.4303 17.7689 40.5234 17.2533 40.5664 16.709C40.6237 16.179 40.6523 15.7279 40.6523 15.3555V14.7324C40.5664 14.89 40.459 15.0547 40.3301 15.2266C40.2155 15.3984 40.0723 15.556 39.9004 15.6992C39.7285 15.8424 39.5208 15.957 39.2773 16.043C39.0482 16.1432 38.776 16.1934 38.4609 16.1934ZM39.3418 8.67383C39.0983 8.67383 38.862 8.78125 38.6328 8.99609C38.418 9.21094 38.2246 9.4974 38.0527 9.85547C37.8809 10.1992 37.7448 10.5931 37.6445 11.0371C37.5443 11.4811 37.4941 11.9251 37.4941 12.3691C37.4941 12.6556 37.5085 12.9492 37.5371 13.25C37.5801 13.5508 37.6517 13.8301 37.752 14.0879C37.8665 14.3314 38.0098 14.5319 38.1816 14.6895C38.3535 14.847 38.5827 14.9258 38.8691 14.9258C39.084 14.9115 39.2845 14.8255 39.4707 14.668C39.6283 14.5391 39.7858 14.3314 39.9434 14.0449C40.1152 13.7585 40.2513 13.3503 40.3516 12.8203C40.4661 12.9349 40.5521 13.0423 40.6094 13.1426C40.681 13.2428 40.7383 13.3359 40.7812 13.4219C40.7956 13.3073 40.8027 13.1712 40.8027 13.0137C40.8171 12.8561 40.8242 12.6771 40.8242 12.4766C40.8242 12.0898 40.8027 11.6745 40.7598 11.2305C40.7168 10.7721 40.638 10.3568 40.5234 9.98438C40.4232 9.61198 40.2728 9.30404 40.0723 9.06055C39.8861 8.80273 39.6426 8.67383 39.3418 8.67383ZM48.752 8.00781C48.752 7.85026 48.8451 7.73568 49.0312 7.66406C49.2318 7.57812 49.4395 7.53516 49.6543 7.53516C49.8835 7.53516 50.0911 7.57812 50.2773 7.66406C50.4635 7.73568 50.5495 7.83594 50.5352 7.96484C50.5208 8.0651 50.5065 8.26562 50.4922 8.56641C50.4779 8.85286 50.4564 9.19661 50.4277 9.59766C50.4134 9.9987 50.3919 10.4284 50.3633 10.8867C50.3346 11.3451 50.306 11.7962 50.2773 12.2402C50.263 12.6699 50.2487 13.071 50.2344 13.4434C50.2344 13.8158 50.2344 14.1022 50.2344 14.3027C50.2344 14.5605 50.2487 14.7969 50.2773 15.0117C50.306 15.1979 50.3418 15.3841 50.3848 15.5703C50.4277 15.7422 50.4922 15.8639 50.5781 15.9355C50.4635 15.9785 50.3418 16.0072 50.2129 16.0215C50.0983 16.0358 49.9909 16.0501 49.8906 16.0645C49.776 16.0788 49.6615 16.0859 49.5469 16.0859C49.3034 16.0859 49.0957 16.0358 48.9238 15.9355C48.7663 15.8353 48.6875 15.6276 48.6875 15.3125C48.6875 15.1549 48.6947 14.9258 48.709 14.625C48.7376 14.3242 48.7663 14.002 48.7949 13.6582C48.6947 13.959 48.5729 14.2669 48.4297 14.582C48.2865 14.8971 48.1074 15.1764 47.8926 15.4199C47.6921 15.6634 47.4629 15.8639 47.2051 16.0215C46.9473 16.179 46.6536 16.2578 46.3242 16.2578C45.9518 16.2578 45.6081 16.179 45.293 16.0215C44.9922 15.8639 44.7272 15.6419 44.498 15.3555C44.2689 15.0547 44.097 14.6895 43.9824 14.2598C43.8678 13.8301 43.8249 13.3359 43.8535 12.7773C43.8535 12.3477 43.8607 11.8893 43.875 11.4023C43.8893 10.987 43.9108 10.5072 43.9395 9.96289C43.9681 9.41862 44.0182 8.85286 44.0898 8.26562C44.1042 8.20833 44.2044 8.13672 44.3906 8.05078C44.5768 7.96484 44.7845 7.89323 45.0137 7.83594C45.2428 7.77865 45.4648 7.75716 45.6797 7.77148C45.8945 7.78581 46.0521 7.87174 46.1523 8.0293C46.0807 8.28711 46.0091 8.59505 45.9375 8.95312C45.8659 9.29688 45.8014 9.65495 45.7441 10.0273C45.6868 10.3997 45.6439 10.765 45.6152 11.123C45.5866 11.4811 45.5723 11.8105 45.5723 12.1113C45.5723 12.3835 45.5866 12.6842 45.6152 13.0137C45.6439 13.3288 45.694 13.6296 45.7656 13.916C45.8516 14.1882 45.9661 14.4173 46.1094 14.6035C46.2669 14.7897 46.4674 14.8828 46.7109 14.8828C46.9831 14.8828 47.2194 14.7682 47.4199 14.5391C47.6348 14.2956 47.8138 13.9876 47.957 13.6152C48.1003 13.2428 48.222 12.8203 48.3223 12.3477C48.4225 11.8607 48.5013 11.3809 48.5586 10.9082C48.6302 10.4355 48.6732 9.98438 48.6875 9.55469C48.7161 9.11068 48.7376 8.73828 48.752 8.4375V8.00781ZM57.8398 3.66797C57.6393 3.71094 57.446 3.76107 57.2598 3.81836C57.1022 3.87565 56.9232 3.9401 56.7227 4.01172C56.5365 4.06901 56.3574 4.14062 56.1855 4.22656C56.1283 4.01172 56.071 3.77539 56.0137 3.51758C55.9707 3.25977 55.9635 3.01628 55.9922 2.78711C56.0208 2.54362 56.0996 2.33594 56.2285 2.16406C56.3717 1.97786 56.6081 1.87044 56.9375 1.8418C57.2526 1.79883 57.6178 1.77018 58.0332 1.75586C58.4486 1.74154 58.8783 1.73438 59.3223 1.73438C59.7806 1.73438 60.2461 1.7487 60.7188 1.77734C61.1914 1.79167 61.6569 1.82747 62.1152 1.88477C62.1439 2.11393 62.1654 2.31445 62.1797 2.48633C62.194 2.64388 62.2012 2.77995 62.2012 2.89453V3.23828C62.2012 3.32422 62.1868 3.39583 62.1582 3.45312C62.1009 3.59635 62.0007 3.68945 61.8574 3.73242C61.6999 3.68945 61.5137 3.66081 61.2988 3.64648C61.0983 3.61784 60.8978 3.58919 60.6973 3.56055C60.4681 3.5319 60.2318 3.51042 59.9883 3.49609C60.0169 3.9974 60.0384 4.72786 60.0527 5.6875C60.0814 6.63281 60.0814 7.87891 60.0527 9.42578C60.0241 11.0013 59.9954 12.2904 59.9668 13.293C59.9525 14.2812 59.9382 15.0475 59.9238 15.5918C60.4681 15.6348 60.8691 15.7279 61.127 15.8711C61.3991 16 61.5781 16.1504 61.6641 16.3223C61.7643 16.5085 61.8001 16.709 61.7715 16.9238C61.7572 17.1387 61.7428 17.3464 61.7285 17.5469C61.485 17.4896 61.2057 17.4466 60.8906 17.418C60.5898 17.4036 60.3034 17.3965 60.0312 17.3965C59.7161 17.3965 59.3939 17.4108 59.0645 17.4395C58.6921 17.4681 58.334 17.5111 57.9902 17.5684C57.7038 17.6257 57.4173 17.6973 57.1309 17.7832C56.8444 17.8691 56.6296 17.9909 56.4863 18.1484C56.3717 17.9336 56.2858 17.7044 56.2285 17.4609C56.1712 17.2604 56.1283 17.0241 56.0996 16.752C56.071 16.4798 56.0781 16.2005 56.1211 15.9141C56.2786 15.8568 56.4577 15.8138 56.6582 15.7852C56.8587 15.7422 57.0449 15.7064 57.2168 15.6777C57.4173 15.6491 57.625 15.6276 57.8398 15.6133C57.8685 15.1549 57.9043 14.5176 57.9473 13.7012C57.9902 12.8704 58.026 11.7604 58.0547 10.3711C58.0833 8.6237 58.069 7.20573 58.0117 6.11719C57.9544 5.01432 57.8971 4.19792 57.8398 3.66797ZM67.5508 9.29688C67.4362 9.29688 67.3073 9.36133 67.1641 9.49023C67.0352 9.60482 66.9062 9.76953 66.7773 9.98438C66.6484 10.1849 66.5195 10.4141 66.3906 10.6719C66.2617 10.9154 66.1471 11.166 66.0469 11.4238C65.8034 12.0254 65.5671 12.6413 65.3379 13.2715C65.1087 13.9017 64.9727 14.446 64.9297 14.9043C64.9154 14.9473 64.9082 14.9902 64.9082 15.0332C64.9082 15.0618 64.9082 15.0905 64.9082 15.1191C64.8939 15.1478 64.8867 15.1908 64.8867 15.248C64.8581 15.4486 64.8151 15.6133 64.7578 15.7422C64.7148 15.8568 64.6146 15.9355 64.457 15.9785C64.2852 16.0072 64.1133 16.0286 63.9414 16.043C63.7695 16.0573 63.6048 16.043 63.4473 16C63.347 15.9714 63.2682 15.9212 63.2109 15.8496C63.168 15.7637 63.1322 15.6706 63.1035 15.5703C63.0892 15.4557 63.0749 15.3483 63.0605 15.248C63.0605 15.1478 63.0605 15.0618 63.0605 14.9902C63.0605 14.9043 63.0677 14.6393 63.082 14.1953C63.0964 13.737 63.1107 13.2214 63.125 12.6484C63.1393 12.0755 63.1465 11.5169 63.1465 10.9727C63.1465 10.4141 63.1393 9.99154 63.125 9.70508C63.0964 9.50456 63.0677 9.31836 63.0391 9.14648C63.0104 8.98893 62.9746 8.83138 62.9316 8.67383C62.903 8.51628 62.8529 8.38021 62.7812 8.26562C62.9388 8.17969 63.0964 8.10807 63.2539 8.05078C63.4115 7.99349 63.5547 7.95052 63.6836 7.92188C63.8411 7.87891 63.9844 7.85026 64.1133 7.83594C64.457 7.80729 64.722 7.80729 64.9082 7.83594C65.1087 7.86458 65.209 8.01497 65.209 8.28711C65.209 8.5306 65.1875 8.91016 65.1445 9.42578C65.1159 9.92708 65.0801 10.6289 65.0371 11.5312C65.1947 11.1732 65.3809 10.7721 65.5957 10.3281C65.8105 9.86979 66.0397 9.44727 66.2832 9.06055C66.5267 8.65951 66.7773 8.33008 67.0352 8.07227C67.293 7.80013 67.5365 7.66406 67.7656 7.66406C67.9232 7.66406 68.1022 7.69987 68.3027 7.77148C68.5176 7.82878 68.7181 7.91471 68.9043 8.0293C69.0905 8.12956 69.2552 8.24414 69.3984 8.37305C69.556 8.50195 69.6634 8.63086 69.7207 8.75977C69.778 8.90299 69.8138 9.125 69.8281 9.42578C69.8424 9.72656 69.8424 10.0632 69.8281 10.4355C69.9427 10.1634 70.0716 9.89844 70.2148 9.64062C70.3581 9.38281 70.5013 9.14648 70.6445 8.93164C70.8021 8.70247 70.9596 8.50911 71.1172 8.35156C71.2747 8.19401 71.418 8.08659 71.5469 8.0293C71.7188 7.95768 71.9264 7.94336 72.1699 7.98633C72.4134 8.0293 72.6497 8.10807 72.8789 8.22266C73.1224 8.32292 73.3301 8.44466 73.502 8.58789C73.6882 8.73112 73.8027 8.86719 73.8457 8.99609C73.8887 9.13932 73.9245 9.36133 73.9531 9.66211C73.9818 9.96289 74.0033 10.2923 74.0176 10.6504C74.0319 11.0085 74.0391 11.3809 74.0391 11.7676C74.0391 12.14 74.0319 12.4694 74.0176 12.7559C73.9889 13.5866 73.9961 14.2454 74.0391 14.7324C74.082 15.2051 74.2539 15.556 74.5547 15.7852C74.3542 15.9141 74.168 16.0072 73.9961 16.0645C73.8242 16.1361 73.6738 16.1862 73.5449 16.2148C73.3874 16.2578 73.2513 16.2793 73.1367 16.2793C72.9792 16.2793 72.8503 16.2363 72.75 16.1504C72.6497 16.0788 72.571 15.9785 72.5137 15.8496C72.4564 15.7207 72.4206 15.5775 72.4062 15.4199C72.3919 15.2624 72.3848 15.1048 72.3848 14.9473C72.3848 14.804 72.3919 14.5677 72.4062 14.2383C72.4349 13.8945 72.4564 13.5078 72.4707 13.0781C72.485 12.6484 72.485 12.2116 72.4707 11.7676C72.4564 11.3092 72.4206 10.8939 72.3633 10.5215C72.3203 10.1348 72.2415 9.81966 72.127 9.57617C72.0124 9.33268 71.8548 9.21094 71.6543 9.21094C71.4824 9.21094 71.3177 9.31836 71.1602 9.5332C71.0026 9.73372 70.8522 10.0059 70.709 10.3496C70.5658 10.679 70.4368 11.0514 70.3223 11.4668C70.222 11.8678 70.1289 12.2689 70.043 12.6699C69.957 13.071 69.8926 13.4434 69.8496 13.7871C69.8066 14.1165 69.7852 14.3815 69.7852 14.582L69.7637 14.3887C69.7637 14.6608 69.7637 14.9115 69.7637 15.1406C69.778 15.3698 69.7923 15.599 69.8066 15.8281C69.821 15.9141 69.7422 15.9857 69.5703 16.043C69.3984 16.1146 69.2051 16.1432 68.9902 16.1289C68.7897 16.1289 68.6035 16.0859 68.4316 16C68.2598 15.9141 68.1738 15.7708 68.1738 15.5703C68.1738 15.4271 68.1738 15.2122 68.1738 14.9258C68.1738 14.6393 68.1667 14.3171 68.1523 13.959C68.1523 13.6009 68.1452 13.2285 68.1309 12.8418C68.1309 12.4408 68.1237 12.0612 68.1094 11.7031C68.1094 11.431 68.1022 11.1517 68.0879 10.8652C68.0879 10.5788 68.0736 10.321 68.0449 10.0918C68.0163 9.84831 67.959 9.65495 67.873 9.51172C67.8014 9.36849 67.694 9.29688 67.5508 9.29688ZM81.8809 14.9043C81.9095 15.0046 81.9525 15.0977 82.0098 15.1836C82.0527 15.2552 82.11 15.3268 82.1816 15.3984C82.2676 15.4557 82.3678 15.4915 82.4824 15.5059C82.3822 15.7064 82.2819 15.8424 82.1816 15.9141C82.1243 15.957 82.0742 15.9857 82.0312 16C81.9023 16.043 81.709 16.0645 81.4512 16.0645C81.1934 16.0645 80.9427 15.9857 80.6992 15.8281C80.6133 15.7565 80.5345 15.6491 80.4629 15.5059C80.3913 15.3913 80.3268 15.2337 80.2695 15.0332C80.2266 14.8184 80.1908 14.5462 80.1621 14.2168C79.9616 14.6465 79.7324 14.9902 79.4746 15.248C79.2311 15.4915 78.9876 15.6706 78.7441 15.7852C78.472 15.9427 78.1927 16.0358 77.9062 16.0645C77.5482 16.0931 77.2044 16.0358 76.875 15.8926C76.5599 15.735 76.2878 15.5059 76.0586 15.2051C75.8438 14.89 75.679 14.5104 75.5645 14.0664C75.4499 13.6224 75.4141 13.1211 75.457 12.5625C75.5 11.9753 75.6146 11.4525 75.8008 10.9941C75.987 10.5358 76.209 10.1276 76.4668 9.76953C76.7246 9.41146 76.9967 9.11068 77.2832 8.86719C77.5697 8.60938 77.8418 8.40169 78.0996 8.24414C78.3717 8.07227 78.6009 7.95052 78.7871 7.87891C78.9876 7.79297 79.1165 7.74284 79.1738 7.72852C79.3314 7.68555 79.4674 7.67122 79.582 7.68555C79.6966 7.69987 79.7969 7.76432 79.8828 7.87891C79.9115 7.92188 79.9473 7.97201 79.9902 8.0293C80.0189 8.08659 80.0547 8.16536 80.0977 8.26562C80.1406 8.35156 80.1764 8.45182 80.2051 8.56641C79.8613 8.72396 79.5391 8.90299 79.2383 9.10352C78.9375 9.28971 78.6582 9.51888 78.4004 9.79102C78.1569 10.0632 77.9421 10.3926 77.7559 10.7793C77.5697 11.166 77.4264 11.6387 77.3262 12.1973C77.1829 12.8991 77.2188 13.4648 77.4336 13.8945C77.6628 14.3242 77.9707 14.5033 78.3574 14.4316C78.5866 14.36 78.8086 14.224 79.0234 14.0234C79.2096 13.8516 79.403 13.5938 79.6035 13.25C79.8184 12.9062 80.0189 12.4336 80.2051 11.832C80.2767 10.9727 80.334 10.2995 80.377 9.8125C80.4342 9.3112 80.4844 8.93164 80.5273 8.67383C80.5846 8.37305 80.6276 8.17253 80.6562 8.07227C80.6992 8.00065 80.7852 7.9362 80.9141 7.87891C81.043 7.80729 81.1862 7.75 81.3438 7.70703C81.5013 7.66406 81.6445 7.64258 81.7734 7.64258C81.9023 7.62826 81.9883 7.62826 82.0312 7.64258C82.0599 7.6569 82.0742 7.83594 82.0742 8.17969C82.0742 8.50911 82.0599 8.93164 82.0312 9.44727C82.0169 9.94857 81.9954 10.5 81.9668 11.1016C81.9382 11.6888 81.9095 12.2474 81.8809 12.7773C81.8665 13.3073 81.8522 13.7728 81.8379 14.1738C81.8379 14.5605 81.8522 14.804 81.8809 14.9043ZM86.0918 16.1934C85.791 16.1934 85.4831 16.1146 85.168 15.957C84.8529 15.7995 84.5592 15.5632 84.2871 15.248C84.015 14.9186 83.793 14.5176 83.6211 14.0449C83.4492 13.5579 83.3633 12.9922 83.3633 12.3477C83.3633 11.4023 83.485 10.6217 83.7285 10.0059C83.972 9.37565 84.2656 8.87435 84.6094 8.50195C84.9674 8.11523 85.3542 7.8431 85.7695 7.68555C86.1849 7.52799 86.5645 7.44922 86.9082 7.44922C87.2663 7.44922 87.5599 7.51367 87.7891 7.64258C88.0326 7.75716 88.2331 7.89323 88.3906 8.05078V7.64258C88.4766 7.57096 88.5697 7.50651 88.6699 7.44922C88.7845 7.39193 88.8991 7.34896 89.0137 7.32031C89.1283 7.27734 89.25 7.25586 89.3789 7.25586H89.7012C89.7871 7.27018 89.873 7.28451 89.959 7.29883C90.0592 7.31315 90.1309 7.34896 90.1738 7.40625C90.0879 9.28255 90.0163 10.8008 89.959 11.9609C89.9017 13.1211 89.8587 14.0234 89.8301 14.668C89.7871 15.4271 89.7585 15.9785 89.7441 16.3223C89.7155 16.9238 89.6367 17.5182 89.5078 18.1055C89.3789 18.707 89.1784 19.2441 88.9062 19.7168C88.6341 20.1895 88.276 20.569 87.832 20.8555C87.388 21.1419 86.8438 21.2852 86.1992 21.2852C85.6406 21.2852 85.1895 21.1777 84.8457 20.9629C84.5163 20.748 84.2585 20.4831 84.0723 20.168C83.9004 19.8529 83.7858 19.5163 83.7285 19.1582C83.6712 18.8145 83.6426 18.4993 83.6426 18.2129C83.6426 18.1413 83.6784 18.0339 83.75 17.8906C83.8359 17.7474 83.9505 17.597 84.0938 17.4395C84.2513 17.2962 84.4447 17.1673 84.6738 17.0527C84.903 16.9382 85.1608 16.8665 85.4473 16.8379C85.3184 17.2246 85.2396 17.5755 85.2109 17.8906C85.1823 18.0625 85.1751 18.2344 85.1895 18.4062C85.1895 18.8789 85.2826 19.2728 85.4688 19.5879C85.6549 19.903 85.9414 20.0605 86.3281 20.0605C86.7435 20.0605 87.0801 19.8815 87.3379 19.5234C87.5957 19.1797 87.7891 18.7572 87.918 18.2559C88.0612 17.7689 88.1543 17.2533 88.1973 16.709C88.2546 16.179 88.2832 15.7279 88.2832 15.3555V14.7324C88.1973 14.89 88.0898 15.0547 87.9609 15.2266C87.8464 15.3984 87.7031 15.556 87.5312 15.6992C87.3594 15.8424 87.1517 15.957 86.9082 16.043C86.679 16.1432 86.4069 16.1934 86.0918 16.1934ZM86.9727 8.67383C86.7292 8.67383 86.4928 8.78125 86.2637 8.99609C86.0488 9.21094 85.8555 9.4974 85.6836 9.85547C85.5117 10.1992 85.3757 10.5931 85.2754 11.0371C85.1751 11.4811 85.125 11.9251 85.125 12.3691C85.125 12.6556 85.1393 12.9492 85.168 13.25C85.2109 13.5508 85.2826 13.8301 85.3828 14.0879C85.4974 14.3314 85.6406 14.5319 85.8125 14.6895C85.9844 14.847 86.2135 14.9258 86.5 14.9258C86.7148 14.9115 86.9154 14.8255 87.1016 14.668C87.2591 14.5391 87.4167 14.3314 87.5742 14.0449C87.7461 13.7585 87.8822 13.3503 87.9824 12.8203C88.097 12.9349 88.1829 13.0423 88.2402 13.1426C88.3118 13.2428 88.3691 13.3359 88.4121 13.4219C88.4264 13.3073 88.4336 13.1712 88.4336 13.0137C88.4479 12.8561 88.4551 12.6771 88.4551 12.4766C88.4551 12.0898 88.4336 11.6745 88.3906 11.2305C88.3477 10.7721 88.2689 10.3568 88.1543 9.98438C88.054 9.61198 87.9036 9.30404 87.7031 9.06055C87.5169 8.80273 87.2734 8.67383 86.9727 8.67383ZM94.3848 16.2363C93.3822 16.2363 92.6087 15.8997 92.0645 15.2266C91.5202 14.5534 91.248 13.6725 91.248 12.584C91.248 11.8249 91.3555 11.1159 91.5703 10.457C91.7995 9.78385 92.1003 9.20378 92.4727 8.7168C92.8451 8.22982 93.2747 7.85026 93.7617 7.57812C94.263 7.29167 94.7858 7.14844 95.3301 7.14844C95.86 7.14844 96.3112 7.3418 96.6836 7.72852C97.056 8.10091 97.2422 8.63802 97.2422 9.33984C97.2422 9.79818 97.1419 10.2565 96.9414 10.7148C96.7409 11.1589 96.4759 11.5599 96.1465 11.918C95.8314 12.2617 95.4805 12.541 95.0938 12.7559C94.707 12.9707 94.3346 13.0781 93.9766 13.0781C93.7474 13.0781 93.554 13.0495 93.3965 12.9922C93.2389 12.9349 93.0957 12.849 92.9668 12.7344C93.0098 13.5508 93.1888 14.1237 93.5039 14.4531C93.819 14.7682 94.2272 14.9258 94.7285 14.9258C95.0723 14.9258 95.373 14.8542 95.6309 14.7109C95.903 14.5677 96.1322 14.403 96.3184 14.2168C96.5046 14.0306 96.6549 13.8444 96.7695 13.6582C96.8841 13.4577 96.9629 13.3073 97.0059 13.207C97.0488 13.1211 97.1204 13.0781 97.2207 13.0781C97.3353 13.0781 97.3926 13.1641 97.3926 13.3359C97.3926 13.4935 97.3353 13.737 97.2207 14.0664C97.1204 14.3815 96.9486 14.7038 96.7051 15.0332C96.4616 15.3483 96.1465 15.6276 95.7598 15.8711C95.3874 16.1146 94.929 16.2363 94.3848 16.2363ZM95.373 8.07227C95.2871 8.07227 95.1224 8.16536 94.8789 8.35156C94.6497 8.52344 94.3991 8.78125 94.127 9.125C93.8691 9.46875 93.6257 9.88411 93.3965 10.3711C93.1816 10.8438 93.0456 11.3809 92.9883 11.9824C93.8477 11.7819 94.528 11.4668 95.0293 11.0371C95.5306 10.6074 95.7812 9.97721 95.7812 9.14648C95.7812 8.73112 95.7311 8.45182 95.6309 8.30859C95.5306 8.15104 95.4447 8.07227 95.373 8.07227ZM103.988 6.03125C103.788 5.97396 103.58 5.88802 103.365 5.77344C103.165 5.64453 102.979 5.5013 102.807 5.34375C102.649 5.17188 102.527 4.98568 102.441 4.78516C102.355 4.58464 102.334 4.36979 102.377 4.14062C102.463 3.66797 102.735 3.22396 103.193 2.80859C103.652 2.39323 104.268 2.0638 105.041 1.82031V1.75586C105.055 1.59831 105.156 1.44076 105.342 1.2832C105.542 1.11133 105.786 0.996745 106.072 0.939453C106.344 0.882161 106.538 0.882161 106.652 0.939453C106.781 0.996745 106.846 1.07552 106.846 1.17578C106.846 1.20443 106.839 1.24023 106.824 1.2832C106.824 1.31185 106.824 1.34049 106.824 1.36914V1.47656C107.526 1.41927 108.307 1.44076 109.166 1.54102C110.197 1.66992 111.035 1.91341 111.68 2.27148C112.324 2.62956 112.811 3.04492 113.141 3.51758C113.47 3.97591 113.671 4.45573 113.742 4.95703C113.828 5.45833 113.828 5.91667 113.742 6.33203C113.656 6.81901 113.499 7.26302 113.27 7.66406C113.04 8.05078 112.768 8.40169 112.453 8.7168C112.138 9.01758 111.787 9.28255 111.4 9.51172C111.014 9.74089 110.605 9.93424 110.176 10.0918C110.634 10.1921 111.021 10.3568 111.336 10.5859C111.665 10.8008 111.93 11.0586 112.131 11.3594C112.331 11.6602 112.475 11.9967 112.561 12.3691C112.646 12.7415 112.675 13.1211 112.646 13.5078C112.618 14.1094 112.46 14.6751 112.174 15.2051C111.902 15.7207 111.529 16.1719 111.057 16.5586C110.584 16.9453 110.018 17.2461 109.359 17.4609C108.715 17.6758 107.999 17.7689 107.211 17.7402H106.953C106.738 17.9264 106.502 18.0625 106.244 18.1484C106.001 18.2487 105.764 18.3203 105.535 18.3633C105.277 18.4206 105.02 18.4421 104.762 18.4277C104.762 18.3275 104.762 18.2201 104.762 18.1055C104.776 18.0052 104.783 17.9049 104.783 17.8047C104.783 17.6901 104.79 17.5755 104.805 17.4609C104.633 17.4323 104.468 17.3893 104.311 17.332C104.167 17.2891 104.017 17.2389 103.859 17.1816C103.716 17.1387 103.587 17.0885 103.473 17.0312C103.415 16.9453 103.372 16.8379 103.344 16.709C103.315 16.5944 103.294 16.4655 103.279 16.3223C103.279 16.1934 103.308 16.043 103.365 15.8711C103.809 16.043 104.318 16.1719 104.891 16.2578C104.919 15.5273 104.941 14.6608 104.955 13.6582C104.984 12.6556 104.998 11.6029 104.998 10.5C104.998 9.25391 104.998 8.0293 104.998 6.82617C105.012 5.62305 105.02 4.5918 105.02 3.73242C104.604 3.94727 104.282 4.24089 104.053 4.61328C103.824 4.98568 103.802 5.45833 103.988 6.03125ZM110.605 13.6152C110.663 12.985 110.57 12.4837 110.326 12.1113C110.083 11.7246 109.76 11.4382 109.359 11.252C108.973 11.0514 108.543 10.9297 108.07 10.8867C107.612 10.8438 107.197 10.8366 106.824 10.8652C106.853 12.054 106.874 13.1354 106.889 14.1094C106.903 15.069 106.917 15.8568 106.932 16.4727C107.376 16.487 107.805 16.4368 108.221 16.3223C108.636 16.2077 109.008 16.0286 109.338 15.7852C109.682 15.5417 109.968 15.2409 110.197 14.8828C110.426 14.5104 110.562 14.0879 110.605 13.6152ZM106.781 3.23828C106.753 3.96875 106.738 4.83529 106.738 5.83789C106.738 6.84049 106.753 7.95768 106.781 9.18945C106.781 9.30404 106.781 9.41862 106.781 9.5332C106.781 9.63346 106.788 9.74089 106.803 9.85547C107.318 9.8125 107.855 9.69076 108.414 9.49023C108.973 9.27539 109.481 8.99609 109.939 8.65234C110.412 8.30859 110.799 7.90755 111.1 7.44922C111.4 6.97656 111.551 6.46094 111.551 5.90234C111.551 5.47266 111.436 5.0931 111.207 4.76367C110.978 4.41992 110.67 4.13346 110.283 3.9043C109.911 3.67513 109.474 3.50326 108.973 3.38867C108.486 3.27409 107.977 3.2168 107.447 3.2168C107.333 3.2168 107.218 3.2168 107.104 3.2168C107.003 3.2168 106.896 3.22396 106.781 3.23828ZM117.158 16.2363C116.156 16.2363 115.382 15.8997 114.838 15.2266C114.294 14.5534 114.021 13.6725 114.021 12.584C114.021 11.8249 114.129 11.1159 114.344 10.457C114.573 9.78385 114.874 9.20378 115.246 8.7168C115.618 8.22982 116.048 7.85026 116.535 7.57812C117.036 7.29167 117.559 7.14844 118.104 7.14844C118.633 7.14844 119.085 7.3418 119.457 7.72852C119.829 8.10091 120.016 8.63802 120.016 9.33984C120.016 9.79818 119.915 10.2565 119.715 10.7148C119.514 11.1589 119.249 11.5599 118.92 11.918C118.605 12.2617 118.254 12.541 117.867 12.7559C117.48 12.9707 117.108 13.0781 116.75 13.0781C116.521 13.0781 116.327 13.0495 116.17 12.9922C116.012 12.9349 115.869 12.849 115.74 12.7344C115.783 13.5508 115.962 14.1237 116.277 14.4531C116.592 14.7682 117.001 14.9258 117.502 14.9258C117.846 14.9258 118.146 14.8542 118.404 14.7109C118.676 14.5677 118.906 14.403 119.092 14.2168C119.278 14.0306 119.428 13.8444 119.543 13.6582C119.658 13.4577 119.736 13.3073 119.779 13.207C119.822 13.1211 119.894 13.0781 119.994 13.0781C120.109 13.0781 120.166 13.1641 120.166 13.3359C120.166 13.4935 120.109 13.737 119.994 14.0664C119.894 14.3815 119.722 14.7038 119.479 15.0332C119.235 15.3483 118.92 15.6276 118.533 15.8711C118.161 16.1146 117.702 16.2363 117.158 16.2363ZM118.146 8.07227C118.061 8.07227 117.896 8.16536 117.652 8.35156C117.423 8.52344 117.173 8.78125 116.9 9.125C116.643 9.46875 116.399 9.88411 116.17 10.3711C115.955 10.8438 115.819 11.3809 115.762 11.9824C116.621 11.7819 117.301 11.4668 117.803 11.0371C118.304 10.6074 118.555 9.97721 118.555 9.14648C118.555 8.73112 118.505 8.45182 118.404 8.30859C118.304 8.15104 118.218 8.07227 118.146 8.07227ZM128.395 2.35742C128.395 2.51497 128.38 2.82292 128.352 3.28125C128.323 3.73958 128.287 4.29102 128.244 4.93555C128.201 5.58008 128.158 6.28906 128.115 7.0625C128.072 7.83594 128.036 8.6237 128.008 9.42578C127.979 10.2279 127.951 10.9798 127.922 11.6816C127.908 12.3691 127.9 12.985 127.9 13.5293C127.915 14.0736 127.943 14.5319 127.986 14.9043C128.029 15.2624 128.094 15.5059 128.18 15.6348L127.213 16C127.141 16.0286 127.055 16.043 126.955 16.043C126.855 16.043 126.747 16.0143 126.633 15.957C126.533 15.8997 126.447 15.7995 126.375 15.6562C126.303 15.513 126.268 15.3125 126.268 15.0547C126.268 14.9544 126.268 14.8327 126.268 14.6895C126.282 14.5319 126.289 14.3529 126.289 14.1523C126.117 14.4388 125.931 14.7181 125.73 14.9902C125.53 15.2624 125.308 15.4987 125.064 15.6992C124.835 15.8997 124.585 16.0573 124.312 16.1719C124.04 16.3008 123.754 16.3652 123.453 16.3652C123.167 16.3652 122.887 16.3008 122.615 16.1719C122.343 16.0573 122.1 15.8783 121.885 15.6348C121.67 15.3913 121.491 15.0762 121.348 14.6895C121.219 14.3027 121.154 13.8372 121.154 13.293C121.154 12.3047 121.269 11.4453 121.498 10.7148C121.727 9.97005 122.014 9.35417 122.357 8.86719C122.715 8.36589 123.095 7.99349 123.496 7.75C123.911 7.49219 124.291 7.36328 124.635 7.36328C125.165 7.36328 125.573 7.50651 125.859 7.79297C126.146 8.0651 126.354 8.35156 126.482 8.65234C126.497 8.23698 126.504 7.85026 126.504 7.49219C126.518 7.11979 126.525 6.80469 126.525 6.54688C126.525 5.48698 126.504 4.54167 126.461 3.71094C126.418 2.88021 126.311 2.25 126.139 1.82031C126.339 1.70573 126.518 1.61979 126.676 1.5625C126.848 1.50521 126.998 1.46224 127.127 1.43359C127.285 1.39062 127.421 1.36914 127.535 1.36914C127.85 1.36914 128.072 1.46224 128.201 1.64844C128.33 1.82031 128.395 2.05664 128.395 2.35742ZM126.354 12.3262C126.382 11.9538 126.396 11.5671 126.396 11.166C126.411 10.7507 126.425 10.3353 126.439 9.91992C126.339 10.0775 126.217 10.2135 126.074 10.3281C125.945 10.4427 125.802 10.4714 125.645 10.4141C125.702 9.98438 125.695 9.65495 125.623 9.42578C125.566 9.19661 125.48 9.02474 125.365 8.91016C125.236 8.78125 125.086 8.70964 124.914 8.69531C124.656 8.69531 124.398 8.83854 124.141 9.125C123.897 9.41146 123.675 9.76953 123.475 10.1992C123.288 10.6146 123.138 11.0658 123.023 11.5527C122.909 12.0254 122.852 12.4622 122.852 12.8633C122.852 13.6654 122.959 14.224 123.174 14.5391C123.403 14.8542 123.646 15.0117 123.904 15.0117C124.119 15.0117 124.341 14.9258 124.57 14.7539C124.814 14.582 125.043 14.36 125.258 14.0879C125.487 13.8158 125.695 13.5293 125.881 13.2285C126.081 12.9134 126.239 12.6126 126.354 12.3262Z" fill="white"/>
</svg>
